<svg width="25" height="25" viewBox="0 0 25 25" fill="none" xmlns="http://www.w3.org/2000/svg">
<path d="M17.1875 0C19.0937 0 20.9216 0.757551 22.2695 2.10547C23.6174 3.45339 24.375 5.28126 24.375 7.1875V17.1875C24.375 18.7572 23.8597 20.2725 22.9258 21.5117L17.6055 16.1914C18.4807 15.0228 19 13.5723 19 12C19 8.13401 15.866 5 12 5C8.13401 5 5 8.13401 5 12C5 15.866 8.13401 19 12 19C13.5723 19 15.0228 18.4807 16.1914 17.6055L21.5117 22.9258C20.2725 23.8597 18.7572 24.375 17.1875 24.375H7.1875C5.28126 24.375 3.45339 23.6174 2.10547 22.2695C0.757551 20.9216 0 19.0937 0 17.1875V7.1875C0 5.28126 0.757551 3.45339 2.10547 2.10547C3.45339 0.757551 5.28126 0 7.1875 0H17.1875ZM12 7C14.7614 7 17 9.23858 17 12C17 14.7614 14.7614 17 12 17C9.23858 17 7 14.7614 7 12C7 9.23858 9.23858 7 12 7Z" fill="black"/>
</svg>
