<svg width="25" height="25" viewBox="0 0 25 25" fill="none" xmlns="http://www.w3.org/2000/svg">
<path d="M17.1875 0C19.0937 0 20.9216 0.757551 22.2695 2.10547C23.6174 3.45339 24.375 5.28126 24.375 7.1875V17.1875C24.375 19.0937 23.6174 20.9216 22.2695 22.2695C20.9216 23.6174 19.0937 24.375 17.1875 24.375H7.1875C5.28126 24.375 3.45339 23.6174 2.10547 22.2695C0.757551 20.9216 0 19.0937 0 17.1875V7.1875C0 5.28126 0.757551 3.45339 2.10547 2.10547C3.45339 0.757551 5.28126 0 7.1875 0H17.1875ZM12 4C9.79086 4 8 5.79086 8 8V9H5V17C5 18.6569 6.34315 20 8 20H16C17.6569 20 19 18.6569 19 17V9H16V8C16 5.79086 14.2091 4 12 4ZM12 6C13.1046 6 14 6.89543 14 8V9H10V8C10 6.89543 10.8954 6 12 6Z" fill="black"/>
</svg>
