<svg width="25" height="25" viewBox="0 0 25 25" fill="none" xmlns="http://www.w3.org/2000/svg">
<path d="M15 16C16.6569 16 18 17.3431 18 19V24C18 24.1112 17.9932 24.221 17.9814 24.3291C17.719 24.3583 17.4541 24.375 17.1875 24.375H7.1875C6.79116 24.375 6.39867 24.3394 6.0127 24.2754C6.00444 24.1847 6 24.0928 6 24V19C6 17.3431 7.34315 16 9 16H15ZM17.1875 0C19.0937 0 20.9216 0.757551 22.2695 2.10547C23.6174 3.45339 24.375 5.28126 24.375 7.1875V17.1875C24.375 19.0937 23.6174 20.9216 22.2695 22.2695C21.6119 22.9271 20.8395 23.4427 20 23.7998V19C20 16.2386 17.7614 14 15 14H9C6.23858 14 4 16.2386 4 19V23.627C3.30538 23.2831 2.66385 22.8279 2.10547 22.2695C0.757551 20.9216 0 19.0937 0 17.1875V7.1875C0 5.28126 0.757551 3.45339 2.10547 2.10547C3.45339 0.757551 5.28126 0 7.1875 0H17.1875ZM12 5C9.79086 5 8 6.79086 8 9C8 11.2091 9.79086 13 12 13C14.2091 13 16 11.2091 16 9C16 6.79086 14.2091 5 12 5Z" fill="black"/>
</svg>