<svg width="224" height="234" viewBox="0 0 224 234" fill="none" xmlns="http://www.w3.org/2000/svg">
<path d="M141.996 127.885C139.169 133.371 133.849 136.835 127.919 138.055C96.9939 144.456 84.6905 101.421 112.623 91.224C136.176 82.6338 152.886 106.686 141.996 127.857V127.885Z" fill="#E3A7F6"/>
<path d="M154.239 98.9553C176.74 94.1892 220.217 72.298 202.621 49.243C179.677 19.1772 148.447 51.5152 139.663 75.069C148.669 51.0164 136.089 -3.40671 110.373 0.167921C77.8136 4.71242 90.505 61.6849 99.6494 78.5051C87.9556 63.0704 54.6478 35.9697 42.0118 52.7345C23.9447 76.7316 50.2972 99.759 80.8063 111.48C59.2754 107.13 -11.9125 127.248 1.72098 160.86C11.0039 183.749 70.9137 164.13 88.7869 147.67C88.7869 147.67 60.4115 202.149 89.7014 211.737C131.101 225.287 126.639 154.071 126.639 154.071C126.639 154.071 155.126 248.924 186.882 231.245C218.638 213.565 163.522 136.974 163.522 136.974C163.522 136.974 221.935 158.422 223.958 123.285C225.981 88.1483 154.211 98.9553 154.211 98.9553H154.239ZM141.991 127.885C139.164 133.372 133.844 136.835 127.914 138.055C96.9892 144.456 84.6858 101.422 112.618 91.2242C136.172 82.6339 152.881 106.687 141.991 127.857V127.885Z" fill="white"/>
</svg>
