<svg width="241" height="364" viewBox="0 0 241 364" fill="none" xmlns="http://www.w3.org/2000/svg">
<path d="M46.5677 364C19.2032 364 9.60159 338.069 6.72112 330.385C3.84063 322.702 14.4024 326.544 19.6833 334.707C24.9641 342.871 31.6853 346.232 37.4462 346.232C90.255 346.232 145.464 293.409 145.464 245.388C145.464 229.541 120.5 226.179 86.4143 234.343C57.6096 257.873 24.004 282.364 18.7231 282.364C11.0418 282.364 0 263.636 0 248.749C0 234.823 48.9681 207.931 94.5757 205.53C158.426 143.103 219.396 50.9024 219.396 33.6148C219.396 27.8523 216.036 22.0897 202.594 22.0897C162.267 22.0897 81.1335 86.9182 62.8904 145.024C60.9701 151.266 48.9681 133.499 48.9681 120.533C48.9681 65.3087 179.55 0 201.633 0C223.717 0 241 30.7335 241 52.8232C241 74.9129 158.426 168.074 118.1 206.491L117.62 206.971C153.145 214.654 165.147 250.19 165.147 262.675C165.147 291.008 122.42 364 46.5677 364ZM26.8845 255.952C27.8446 255.472 28.8048 254.992 30.245 254.512L26.8845 255.952Z" fill="white"/>
</svg>
