<svg width="184" height="188" viewBox="0 0 184 188" fill="none" xmlns="http://www.w3.org/2000/svg">
<path d="M58.3684 115.93C39.8816 127.688 5.28322 129.548 0.691219 107.815C-6.07803 75.8692 38.6544 75.315 57.062 82.5989C31.8456 67.3582 6.94584 52.4342 26.7785 34.0266C40.6337 21.1611 71.1151 40.8354 79.0324 56.3532C73.5299 39.9645 70.7193 -1.0864 100.33 0.0220103C123.686 0.932494 126.773 39.6874 115.016 59.5993C126.536 40.0833 166.558 5.88067 182.115 36.1641C194.07 59.4013 144.825 82.4009 124.121 83.0739C124.121 83.0739 189.478 84.8949 182.115 115.733C174.752 146.57 126.338 118.266 126.338 118.266C126.338 118.266 165.657 171.875 134.109 185.341C92.9217 202.921 90.9082 127.569 90.9082 127.569C90.9082 127.569 76.2613 169.055 54.6868 160.584C28.837 150.45 58.3684 115.891 58.3684 115.891V115.93Z" fill="#FF88BF"/>
<path d="M71.8281 86.0826C72.4615 80.5801 75.9055 75.9485 80.4975 73.0588C104.566 57.9368 128.516 90.3579 108.168 107.776C90.9878 122.462 69.2946 107.42 71.8281 86.0826Z" fill="white"/>
</svg>
