<svg width="69" height="63" viewBox="0 0 69 63" fill="none" xmlns="http://www.w3.org/2000/svg">
<path d="M33.2299 0.571561C33.8491 27.0539 17.0515 31.0071 0.555684 31.3882C0.238151 31.3882 0 31.6581 0 31.9597C0 32.2614 0.269904 32.5154 0.571561 32.5154C17.0674 32.1344 34.0237 35.3097 34.6429 61.792C34.6429 62.1095 34.9128 62.3477 35.2145 62.3477C35.5161 62.3477 35.7701 62.0778 35.7701 61.7761C35.1509 35.2938 51.9485 31.3406 68.4443 30.9595C68.7619 30.9595 69 30.6896 69 30.388C69 30.0863 68.7301 29.8323 68.4284 29.8323C51.9326 30.2133 34.9763 27.038 34.3571 0.555681C34.3571 0.238148 34.0872 0 33.7856 0C33.4839 0 33.2299 0.269904 33.2299 0.571561Z" fill="white"/>
</svg>
