<svg width="279" height="347" viewBox="0 0 279 347" fill="none" xmlns="http://www.w3.org/2000/svg">
<path d="M92.4134 238.48C67.7325 261.197 16.0627 273.34 3.26582 241.787C-15.542 195.439 51.7321 182.59 81.425 188.567C39.3313 172.394 2.97302 140.617 27.8951 107.514C45.3078 84.4005 91.2939 121.792 107.415 143.08C94.7902 119.846 87.4187 6.4308 132.32 0.16153C167.8 -4.78155 175.016 105.12 162.615 138.327C174.741 105.826 234.523 19.7788 266.196 61.2697C290.464 93.0638 213.751 164.695 182.715 171.275C182.715 171.275 281.749 156.394 278.941 204.86C276.134 253.326 195.546 223.72 195.546 223.72C195.546 223.72 274.291 318.379 230.492 342.767C186.694 367.155 144.634 247.315 144.634 247.315C144.634 247.315 149.939 341.544 92.8268 322.857C52.4038 309.629 92.3962 238.463 92.3962 238.463L92.4134 238.48Z" fill="#E3A7F6"/>
<path d="M183.728 182.469C144.614 182.469 139.343 157.547 139.343 133.176C139.343 132.711 138.965 132.35 138.517 132.35C138.069 132.35 137.69 132.729 137.69 133.176C137.69 157.547 132.42 182.469 93.3056 182.469C92.8406 182.469 92.4789 182.848 92.4789 183.296C92.4789 183.744 92.8578 184.123 93.3056 184.123C132.42 184.123 137.69 209.045 137.69 233.416C137.69 233.881 138.069 234.242 138.517 234.242C138.965 234.242 139.343 233.864 139.343 233.416C139.343 209.045 144.614 184.123 183.728 184.123C184.193 184.123 184.554 183.744 184.554 183.296C184.554 182.848 184.176 182.469 183.728 182.469Z" fill="white"/>
</svg>
