<svg width="175" height="178" viewBox="0 0 175 178" fill="none" xmlns="http://www.w3.org/2000/svg">
<path d="M87.1444 53.8094C94.9818 36.7337 122.93 1.68179 144.291 20.7919C168.604 42.5368 120.245 73.8867 103.603 77.2219C128.833 76.4715 180.294 84.8592 174.557 107.338C170.555 123.046 112.925 113.841 100.001 106.337C111.541 115.609 148.744 160.85 114.375 176.525C96.1325 184.846 73.2703 140.555 72.5033 120.712C73.2537 140.122 59.5797 189.882 34.2496 175.291C14.8393 164.101 40.3862 118.144 54.994 108.038C54.994 108.038 10.2202 149.494 1.19877 123.863C-7.82268 98.2163 37.0344 83.7253 37.0344 83.7253C37.0344 83.7253 -4.68768 69.3844 12.6715 47.3227C30.0307 25.261 58.229 60.5463 58.229 60.5463C58.229 60.5463 37.0678 2.73235 70.6189 0.0475933C94.3482 -1.85341 87.1277 53.8261 87.1277 53.8261L87.1444 53.8094Z" fill="#FF88BF"/>
<path d="M73.5704 56.4773C74.2208 84.292 56.5781 88.4442 39.2522 88.8444C38.9187 88.8444 38.6686 89.1279 38.6686 89.4448C38.6686 89.7616 38.9521 90.0284 39.2689 90.0284C56.5948 89.6282 74.4042 92.9633 75.0545 120.778C75.0545 121.112 75.338 121.362 75.6549 121.362C75.9717 121.362 76.2385 121.078 76.2385 120.761C75.5882 92.9466 93.2308 88.7944 110.557 88.3942C110.89 88.3942 111.14 88.1107 111.14 87.7939C111.14 87.477 110.857 87.2102 110.54 87.2102C93.2142 87.6104 75.4047 84.2753 74.7544 56.4606C74.7544 56.1271 74.4709 55.877 74.1541 55.877C73.8372 55.877 73.5704 56.1604 73.5704 56.4773Z" fill="white"/>
</svg>
