<svg width="269" height="374" viewBox="0 0 269 374" fill="none" xmlns="http://www.w3.org/2000/svg">
<path d="M179.333 374C133.054 374 100.272 350.925 66.5269 339.869C52.0645 349.003 40.4946 354.29 32.7814 354.29C13.0161 354.29 0 335.062 0 326.409C0 314.391 19.7652 312.468 27.4785 312.468C36.638 312.468 46.7616 315.352 57.3674 319.198C136.428 267.761 247.789 103.355 247.789 49.9949C247.789 33.1697 239.593 24.9974 227.059 24.9974C167.763 24.9974 120.52 116.334 117.145 137.005C115.217 149.023 97.862 127.871 97.862 111.527C97.862 95.1825 175.477 0 221.756 0C252.609 0 269 53.3599 269 62.9743C269 140.37 154.265 274.01 81.4713 329.293C107.504 340.35 137.392 352.848 171.138 351.887C203.437 350.925 237.183 341.792 243.45 324.967C244.896 321.121 252.127 328.812 252.127 334.1C252.127 351.887 226.577 374 179.333 374Z" fill="white"/>
</svg>
