<svg width="204" height="219" viewBox="0 0 204 219" fill="none" xmlns="http://www.w3.org/2000/svg">
<path d="M92.0179 56.9367C88.5465 33.8848 102.58 -2.48225 126.846 0.133702C162.476 3.96749 142.432 50.3118 126.567 66.8472C153.664 45.984 190.086 19.8461 199.693 46.5457C206.4 65.1979 162.643 95.4602 143.184 98.3771C162.36 98.2963 215.989 108.418 201.216 138.58C189.541 162.409 138.087 153.363 123.236 134.461C137.767 152.955 165.788 212.953 127.766 218.782C98.6236 223.255 86.2729 157.537 95.1204 135.939C95.1204 135.939 63.1771 202.807 35.2068 184.756C7.22915 166.709 58.299 126.317 58.299 126.317C58.299 126.317 -3.29057 133.701 0.138014 98.1454C3.56128 62.5827 65.1431 86.5866 65.1431 86.5866C65.1431 86.5866 -5.58319 39.4962 29.2304 10.1047C53.8704 -10.7019 92.0253 56.9315 92.0253 56.9315L92.0179 56.9367Z" fill="#E3A7F6"/>
<path d="M123.15 89.4257C126.857 94.2615 127.731 100.453 126.381 106.211C119.336 136.232 76.1122 128.631 78.564 99.6257C80.6339 75.1503 108.838 70.7378 123.15 89.4257Z" fill="white"/>
</svg>
