<svg width="515" height="522" viewBox="0 0 515 522" fill="none" xmlns="http://www.w3.org/2000/svg">
<path d="M287.713 137.05C312.492 84.4157 315.132 -2.33478 243.434 0.0480751C150.01 3.02938 165.803 113.87 198.477 165.754C165.117 112.455 39.4422 58.8888 7.65807 116.273C-32.7829 189.399 97.8651 246.208 144.749 252.085C96.7636 253.535 -6.59984 282.165 7.07381 332.149C26.7855 403.816 111.699 383.649 180.789 338.601C139.898 376.094 69.0847 499.443 155.423 520.611C214.275 534.929 268.813 435.236 263.714 374.881C263.714 374.881 327.428 511.828 390.372 466.285C479.565 401.782 333.5 307.271 333.5 307.271C333.5 307.271 499.692 363.164 513.37 272.866C526.768 182.36 356.097 207.309 356.097 207.309C356.097 207.309 486.46 119.549 420.876 64.0248C355.074 8.79216 287.713 137.05 287.713 137.05Z" fill="#FFBDDB"/>
</svg>
