<svg width="267" height="273" viewBox="0 0 267 273" fill="none" xmlns="http://www.w3.org/2000/svg">
<path d="M84.7157 168.261C57.8841 185.326 7.66806 188.026 1.00323 156.483C-8.82164 110.116 56.1029 109.312 82.8197 119.884C46.2206 97.7636 10.0812 76.1029 38.8663 49.3861C58.9757 30.7131 103.216 59.2684 114.707 81.791C106.721 58.0044 102.642 -1.57681 145.618 0.0319457C179.517 1.35342 183.999 57.6022 166.934 86.5023C183.654 58.1768 241.741 8.5352 264.321 52.4886C281.673 86.2149 210.198 119.597 180.149 120.573C180.149 120.573 275.008 123.216 264.321 167.974C253.635 212.732 183.367 171.651 183.367 171.651C183.367 171.651 240.434 249.46 194.645 269.004C134.866 294.519 131.944 185.153 131.944 185.153C131.944 185.153 110.686 245.366 79.3724 233.071C41.854 218.362 84.7157 168.204 84.7157 168.204V168.261Z" fill="#FF88BF"/>
<path d="M104.252 124.941C105.171 116.955 110.169 110.233 116.834 106.038C151.767 84.0905 186.528 131.146 156.996 156.427C132.06 177.743 100.574 155.91 104.252 124.941Z" fill="white"/>
</svg>
