<svg width="495" height="489" viewBox="0 0 495 489" fill="none" xmlns="http://www.w3.org/2000/svg">
<path d="M185.306 342.832C149.711 384.942 127.009 465.731 195.067 484.853C283.719 509.886 294.68 400.953 276.009 342.429C294.997 402.488 400.834 490.304 444.131 445.814C499.247 389.101 389.483 296.753 346.713 277.257C392.227 290.192 496.214 294.068 494.989 242.992C493.132 169.728 408.488 163.391 332.943 185.165C380.179 162.092 475.594 67.202 399.241 21.5723C347.169 -9.42786 272.59 68.0677 263.325 126.341C263.325 126.341 235.254 -21.4202 165.38 2.65128C66.3748 36.7293 181.866 169.124 181.866 169.124C181.866 169.124 38.4255 67.0464 4.50476 147.881C-29.201 228.996 137.297 256.389 137.297 256.389C137.297 256.389 -5.88979 300.069 42.9179 371.823C91.9975 443.366 185.306 342.832 185.306 342.832Z" fill="#FFBDDB"/>
</svg>
