<svg width="338" height="324" viewBox="0 0 338 324" fill="none" xmlns="http://www.w3.org/2000/svg">
<path d="M228.829 181.605C259.48 197.154 291.46 245.539 267.946 272.96C233.429 313.231 194.487 248.931 187.907 215.335C190.268 266.38 191.15 333.353 150.96 322.173C122.887 314.357 123.199 234.874 136.021 208.578C120.024 232.092 62.8336 288.971 38.9398 245.009C20.0662 210.274 74.1361 155.133 109.346 153.206C74.8959 155.092 -20.8153 137.833 4.08266 86.3411C23.1598 46.8708 112.602 88.2 131.164 117.562C131.164 117.562 77.5146 21.0909 122.711 2.39374C167.907 -16.317 173.646 80.8052 173.646 80.8052C173.646 80.8052 216.455 -0.835533 256.359 33.8859C296.277 68.6073 215.708 123.288 215.708 123.288C215.708 123.288 331.731 77.2503 337.878 145.051C342.233 193.043 228.829 181.618 228.829 181.618V181.605Z" fill="#E3A7F6"/>
<path d="M163.592 191.822C154.664 192.202 146.482 187.955 140.689 181.36C110.485 146.978 155.899 100.669 188.734 128.566C216.441 152.107 198.083 190.37 163.592 191.822Z" fill="white"/>
</svg>
