<svg width="532" height="546" viewBox="0 0 532 546" fill="none" xmlns="http://www.w3.org/2000/svg">
<path d="M295.953 193.741C323.505 135.217 349.281 -2.61183 269.56 0.0376645C165.681 3.35258 144.706 127.893 181.036 185.583C143.943 126.319 58.4127 89.861 23.0719 153.667C-21.8946 234.975 69.1656 275.04 121.296 281.575C67.9409 283.187 -13.3409 322.195 1.86283 377.772C23.7804 457.458 84.5471 427.861 161.369 377.772C115.902 419.461 48.6663 519.908 144.666 543.444C210.104 559.365 259.243 485.221 253.574 418.112C253.574 418.112 324.418 570.384 394.404 519.744C493.578 448.024 331.169 342.936 331.169 342.936C331.169 342.936 515.958 405.084 531.167 304.681C546.064 204.047 356.294 231.788 356.294 231.788C356.294 231.788 541.372 146.138 468.448 84.4001C395.283 22.9868 295.953 193.741 295.953 193.741Z" fill="#F2D4F8"/>
</svg>
